<svg width="44" height="36" viewBox="0 0 44 36" fill="none" xmlns="http://www.w3.org/2000/svg">
<g id="Frame" clip-path="url(#clip0_112_1097)">
<path id="Vector" d="M39.6 -0.000244141H4.4C1.98 -0.000244141 0 2.02476 0 4.49976V31.4998C0 33.9748 1.98 35.9998 4.4 35.9998H39.6C42.02 35.9998 44 33.9748 44 31.4998V4.49976C44 2.02476 42.02 -0.000244141 39.6 -0.000244141ZM6.6 17.9998H11C12.21 17.9998 13.2 19.0123 13.2 20.2498C13.2 21.4873 12.21 22.4998 11 22.4998H6.6C5.39 22.4998 4.4 21.4873 4.4 20.2498C4.4 19.0123 5.39 17.9998 6.6 17.9998ZM24.2 31.4998H6.6C5.39 31.4998 4.4 30.4873 4.4 29.2498C4.4 28.0123 5.39 26.9998 6.6 26.9998H24.2C25.41 26.9998 26.4 28.0123 26.4 29.2498C26.4 30.4873 25.41 31.4998 24.2 31.4998ZM37.4 31.4998H33C31.79 31.4998 30.8 30.4873 30.8 29.2498C30.8 28.0123 31.79 26.9998 33 26.9998H37.4C38.61 26.9998 39.6 28.0123 39.6 29.2498C39.6 30.4873 38.61 31.4998 37.4 31.4998ZM37.4 22.4998H19.8C18.59 22.4998 17.6 21.4873 17.6 20.2498C17.6 19.0123 18.59 17.9998 19.8 17.9998H37.4C38.61 17.9998 39.6 19.0123 39.6 20.2498C39.6 21.4873 38.61 22.4998 37.4 22.4998Z" fill="#999999"/>
</g>
<defs>
<clipPath id="clip0_112_1097">
<rect width="44" height="36" fill="white" transform="translate(0 -0.000244141)"/>
</clipPath>
</defs>
</svg>
