<svg width="24" height="24" viewBox="0 0 24 24" fill="none" xmlns="http://www.w3.org/2000/svg">
<g id="Icons_Call" clip-path="url(#clip0_112_3742)">
<g id="Exclude">
<mask id="path-1-inside-1_112_3742" fill="white">
<path fill-rule="evenodd" clip-rule="evenodd" d="M4.57107 1.92893C0.665825 5.83417 0.665824 12.1658 4.57107 16.0711L8.1066 19.6066C12.0118 23.5118 18.3435 23.5118 22.2487 19.6066C23.4203 18.435 23.4203 16.5355 22.2487 15.364L19.7739 12.8891C18.7976 11.9128 17.2146 11.9128 16.2383 12.8891C15.262 13.8654 13.6791 13.8654 12.7028 12.8891L11.2886 11.4749C10.3123 10.4986 10.3123 8.91565 11.2886 7.93934C12.2649 6.96303 12.2649 5.38012 11.2886 4.40381L8.81371 1.92893C7.64214 0.75736 5.74264 0.757359 4.57107 1.92893Z"/>
</mask>
<path d="M5.98528 14.6569C2.86109 11.5327 2.86109 6.46734 5.98528 3.34315L3.15685 0.514719C-1.52944 5.20101 -1.52944 12.799 3.15685 17.4853L5.98528 14.6569ZM9.52082 18.1924L5.98528 14.6569L3.15685 17.4853L6.69239 21.0208L9.52082 18.1924ZM20.8345 18.1924C17.7103 21.3166 12.645 21.3166 9.52082 18.1924L6.69239 21.0208C11.3787 25.7071 18.9767 25.7071 23.663 21.0208L20.8345 18.1924ZM18.3596 14.3033L20.8345 16.7782L23.663 13.9497L21.1881 11.4749L18.3596 14.3033ZM14.117 11.4749L12.7028 10.0607L9.87437 12.8891L11.2886 14.3033L14.117 11.4749ZM7.39949 3.34315L9.87437 5.81802L12.7028 2.98959L10.2279 0.514719L7.39949 3.34315ZM10.2279 0.514719C8.2753 -1.4379 5.10948 -1.4379 3.15685 0.514719L5.98528 3.34315C6.37581 2.95262 7.00897 2.95262 7.39949 3.34315L10.2279 0.514719ZM12.7028 9.35355C14.4602 7.59619 14.4602 4.74695 12.7028 2.98959L9.87437 5.81802C10.0696 6.01328 10.0696 6.32986 9.87437 6.52513L12.7028 9.35355ZM12.7028 10.0607C12.5075 9.8654 12.5075 9.54882 12.7028 9.35355L9.87437 6.52513C8.11701 8.28249 8.11701 11.1317 9.87437 12.8891L12.7028 10.0607ZM14.8241 11.4749C14.6289 11.6701 14.3123 11.6701 14.117 11.4749L11.2886 14.3033C13.0459 16.0607 15.8952 16.0607 17.6525 14.3033L14.8241 11.4749ZM21.1881 11.4749C19.4307 9.71751 16.5815 9.71751 14.8241 11.4749L17.6525 14.3033C17.8478 14.108 18.1644 14.108 18.3596 14.3033L21.1881 11.4749ZM23.663 21.0208C25.6156 19.0682 25.6156 15.9024 23.663 13.9497L20.8345 16.7782C21.225 17.1687 21.225 17.8019 20.8345 18.1924L23.663 21.0208Z" fill="#A5ACB8" mask="url(#path-1-inside-1_112_3742)"/>
</g>
</g>
<defs>
<clipPath id="clip0_112_3742">
<rect width="24" height="24" fill="white"/>
</clipPath>
</defs>
</svg>
