<svg width="41" height="32" viewBox="0 0 41 32" fill="none" xmlns="http://www.w3.org/2000/svg">
<g id="Group">
<g id="Group_2">
<g id="Group_3">
<path id="Vector" fill-rule="evenodd" clip-rule="evenodd" d="M37.4821 7.16984C37.4821 4.36326 37.6346 2.22782 36.0178 1.00756C34.1874 -0.365223 29.8555 0.122872 26.7439 0.122872H3.95561C2.36927 0.794011 1.5151 0.794017 0.630414 2.19731C-0.0712318 3.32604 -0.193259 8.20706 0.294843 9.91541C0.477881 10.5255 0.935478 11.1357 1.39307 11.5017C2.9794 12.7525 6.67066 12.2644 9.47725 12.2644H29.4284C33.0282 12.2644 36.5059 12.8745 37.3906 10.0374C37.6041 9.21377 37.4821 8.08503 37.4821 7.16984ZM34.767 15.6811C24.0593 15.6811 13.321 15.6506 2.61332 15.6506C2.61332 17.542 2.58282 19.4029 2.58282 21.2943C2.58282 24.2534 2.21674 27.7921 3.34548 29.592C3.95561 30.5377 4.93181 31.3614 6.09105 31.7275C7.3113 32.124 9.17219 31.9715 10.7585 31.9715H26.5608C28.6047 31.9715 30.7097 32.0935 32.0825 31.4529C33.3332 30.8733 34.2789 29.653 34.706 28.2192C35.0416 27.0905 34.7365 25.5957 34.7365 24.2534V15.6811H34.767Z" fill="#09E27C"/>
</g>
</g>
<g id="Group_4">
<g id="Group_5">
<path id="Vector_2" fill-rule="evenodd" clip-rule="evenodd" d="M21.2526 0H16.1885C16.1885 2.34899 16.219 4.66747 16.219 7.01646C16.219 8.05368 16.036 9.54849 16.341 10.3722C16.6461 11.1958 17.3477 11.867 18.2934 12.0195C22.1983 12.7822 21.2831 6.77241 21.2831 3.50823C21.2831 2.3795 21.2831 1.18975 21.2526 0ZM38.9767 13.9109C38.2446 13.6058 36.9633 13.7584 35.9871 13.7584H29.7028C29.1021 13.7584 28.8791 13.9109 28.5131 14.1549C27.5674 14.8566 27.7504 16.5955 28.6656 17.1446C29.3672 17.5717 30.7705 17.4191 31.8688 17.4191H36.7498C37.4514 17.4191 38.3666 17.5107 38.8852 17.2971C39.4038 17.0836 39.8614 16.5955 40.014 15.9853C40.2885 15.0396 39.6174 14.1855 38.9767 13.9109ZM34.8279 19.8291H24.6388C24.0725 19.8291 23.7541 19.9512 23.388 20.1952C22.2593 21.0189 22.5948 22.9103 23.7846 23.3984C24.6083 23.7339 26.2251 23.5204 27.2623 23.5204H34.0042C34.9499 23.5204 36.2922 23.7034 37.0854 23.4289C37.665 23.2458 38.1531 22.6662 38.3056 22.0561C38.7937 19.9207 36.6888 19.8291 34.8279 19.8291Z" fill="#060606"/>
</g>
</g>
</g>
</svg>
