<svg width="37" height="38" viewBox="0 0 37 38" fill="none" xmlns="http://www.w3.org/2000/svg">
<g id="Group">
<g id="Group_2">
<g id="Group_3">
<path id="Vector" fill-rule="evenodd" clip-rule="evenodd" d="M21.3627 0.514237C19.9995 0.499512 18.6651 1.57511 19.1198 3.57561C19.241 4.12119 19.8775 4.66677 19.726 5.30329C19.5744 5.97012 19.0288 6.42478 18.8773 7.18254C18.6045 8.72837 20.12 10.3045 21.6052 10.0317C25.6365 9.39521 25.9699 0.483927 21.3627 0.514237ZM29.2738 12.0019C30.2437 11.032 31.2137 10.0317 32.1836 9.06179C32.8504 8.39496 33.79 7.75844 34.1538 6.81881C34.9418 4.81832 33.2141 3.39374 31.4258 3.42405C30.9995 3.49951 30.9995 3.42405 30.365 3.81809C28.9404 5.24268 27.5158 6.69758 26.0912 8.12218C25.5759 8.66776 25.0303 9.18304 24.515 9.72863C23.727 10.9714 24.3635 12.6384 25.2728 13.2446C25.9093 13.6387 27.1521 13.7296 27.8492 13.3356C28.4251 13.0021 28.8191 12.4566 29.2738 12.0019ZM32.0017 12.7294C30.8964 12.7425 30.3043 13.0628 29.5769 13.4871C27.9704 14.4267 26.2427 17.2153 28.6373 18.6702C29.5769 19.2461 30.8802 19.0036 31.6077 18.4277C31.8502 18.2459 31.9714 17.8821 32.3048 17.7912C33.0323 17.579 33.5476 18.0337 34.0325 18.1246C35.548 18.4277 36.5483 17.2759 36.8514 16.306C37.7304 13.5174 34.5478 12.699 32.0017 12.7294Z" fill="#060606"/>
</g>
</g>
<g id="Group_4">
<g id="Group_5">
<path id="Vector_2" fill-rule="evenodd" clip-rule="evenodd" d="M30.5992 24.034C30.174 23.3658 29.5058 22.8495 28.9287 22.3028C27.7746 21.1486 26.6204 19.9944 25.4662 18.8403C23.0061 16.3801 20.5762 13.9199 18.116 11.4597C16.7796 10.1233 15.4433 8.30096 13.712 7.42015C13.1046 7.11642 12.3452 7.05567 11.6467 6.90381C11.0392 7.14679 10.4621 7.08604 9.94579 7.38976C8.42716 8.30094 8.36642 9.9107 7.48561 11.4597C13.6816 17.6861 19.908 23.8821 26.1041 30.1085C26.5596 29.9567 27.0152 29.7744 27.4708 29.6226C29.3539 28.9544 30.5081 28.3469 30.9333 26.1905C31.1156 25.3704 30.9029 24.52 30.5992 24.034ZM4.20536 22.3635C8.03232 26.1905 11.8593 30.0478 15.6862 33.8747C17.9034 33.0851 20.1207 32.2954 22.3379 31.5057C16.9923 26.1601 11.6467 20.7841 6.30107 15.4385C5.6025 17.7468 4.90394 20.0552 4.20536 22.3635ZM0.712507 33.9962C0.317662 36.3653 2.32226 38.2484 4.7217 37.8232C7.27301 37.398 9.36872 35.7882 11.8593 35.3326V35.3023C8.88276 32.3257 5.90623 29.3492 2.92971 26.3727C2.26151 28.924 1.1681 31.2627 0.712507 33.9962Z" fill="#00D4EA"/>
</g>
</g>
</g>
</svg>
